<?xml version="1.0" encoding="UTF-8"?>
<svg width="1408" height="768" viewBox="0 0 1408 768" xmlns="http://www.w3.org/2000/svg">
  <path id="5" d="M 0,768 C 0,512 0,256 0,0 C 469.333,0 938.667,0 1408,0 C 1408,256 1408,512 1408,768 C 938.667,768 469.333,768 0,768 ZM 937.142,461.500 C 936.093,458.750 933.334,452.450 931.010,447.500 C 928.686,442.550 923.504,431.300 919.494,422.500 C 915.484,413.700 908.062,397.500 902.999,386.500 C 889.425,357.008 842.708,254.543 835.978,239.500 C 810.737,183.085 789.741,138.335 787.314,135.778 C 779.266,127.298 765.596,124.997 754.792,130.303 C 751.618,131.862 747.768,134.767 746.120,136.848 C 744.490,138.906 739.245,149.120 734.465,159.545 C 729.685,169.970 720.591,189.750 714.255,203.500 C 707.919,217.250 700.599,233.225 697.987,239 C 676.360,286.818 655.747,331.644 655.072,332.323 C 654.622,332.775 651.651,328.275 648.468,322.323 C 645.285,316.370 636.220,299.350 628.324,284.500 C 616.872,262.962 613.044,256.643 609.403,253.265 C 598.650,243.287 583.062,243.740 572.602,254.333 C 568.157,258.835 565.541,263.559 552.300,291 C 543.940,308.325 532.294,332.400 526.420,344.500 C 511.358,375.525 480.738,439.417 474.661,452.500 C 469.838,462.883 469.553,463.949 469.583,471.500 C 469.611,478.636 469.979,480.183 472.987,485.825 C 476.769,492.919 480.922,496.799 489,500.786 C 490.833,501.691 492.667,502.595 494.500,503.500 C 532.667,503.600 570.833,503.699 609,503.799 C 693.329,504.020 725.081,503.790 729.500,502.930 C 738.385,501.200 750.635,495.012 756.711,489.185 C 763.113,483.045 769.080,473.977 772.148,465.723 C 772.919,463.649 773.691,461.574 774.462,459.500 C 774.564,436.083 774.667,412.667 774.769,389.250 C 775.020,331.899 775.319,319 776.396,319 C 777.122,319 784.810,328.032 793.482,339.072 C 802.529,350.589 810.291,359.541 811.694,360.074 C 816.842,362.031 822,358.432 822,352.882 C 822,350.914 816.036,342.600 799.383,321.354 C 771.045,285.201 771.628,285.825 766.589,286.204 C 762.728,286.495 762.299,286.958 742.267,312.500 C 712.437,350.535 713,349.747 713,353.444 C 713,358.243 717.660,361.626 722.572,360.393 C 725.006,359.782 726.247,358.325 746.343,332.500 C 752.335,324.800 757.747,318.500 758.369,318.500 C 759.962,318.500 760.506,443.779 758.954,453.153 C 756.619,467.253 748.295,478.593 736.003,484.418 C 733.835,485.445 731.668,486.473 729.500,487.500 C 690.886,487.587 652.272,487.675 613.658,487.762 C 498.200,488.024 497.804,488.018 494.141,485.959 C 488.402,482.733 485.497,477.719 485.517,471.073 C 485.535,464.926 486.102,463.686 536.521,359.500 C 580.732,268.142 581.564,266.487 584.471,264.201 C 588.102,261.345 594.748,261.228 598.219,263.958 C 599.588,265.035 602.420,269.197 604.512,273.208 C 609.790,283.325 634.884,330.015 642.696,344.253 C 646.243,350.717 649.982,356.455 651.006,357.003 C 654.190,358.707 658.514,358.150 660.716,355.750 C 661.852,354.513 674.815,327.175 689.523,295 C 704.231,262.825 721.428,225.250 727.740,211.500 C 734.051,197.750 742.579,179.075 746.689,170 C 756.236,148.923 758.208,145.571 761.981,144.008 C 765.873,142.396 772.719,143.275 775.142,145.698 C 776.159,146.715 789.976,176.111 805.848,211.023 C 867.638,346.938 887.129,389.625 909.030,437 C 923.436,468.163 924.256,470.459 922.842,475.693 C 921.800,479.552 918.145,484.215 914.500,486.336 C 913.071,487.168 896.142,487.643 855.163,488 C 836.051,488.167 816.938,488.333 797.826,488.500 C 797.022,489.435 796.217,490.371 795.413,491.306 C 792.323,494.900 792.347,498.438 795.485,501.576 C 796.313,502.404 797.143,503.234 797.971,504.062 C 817.393,503.968 836.813,503.875 856.235,503.781 C 875.657,503.687 895.078,503.594 914.500,503.500 C 916.443,502.546 918.386,501.592 920.329,500.638 C 931.672,495.068 938.041,485.650 938.681,473.500 C 938.954,468.325 938.552,465.197 937.142,461.500 ZM 459.250,559.013 C 456.362,559.006 454,559.179 454,559.398 C 454,559.934 470.123,598.039 480.191,621.298 C 482.903,627.564 485.617,633.830 488.329,640.096 C 489.835,639.997 491.340,639.897 492.846,639.798 C 494.352,639.699 495.858,639.599 497.364,639.500 C 503.090,626.167 508.816,612.833 514.542,599.500 C 520.268,586.167 525.993,572.833 531.719,559.500 C 529.974,559.401 528.230,559.303 526.485,559.204 C 524.740,559.105 522.995,559.007 521.250,558.908 C 520.348,561.173 519.446,563.439 518.544,565.704 C 513.125,579.314 493.670,625.520 493.057,626.237 C 492.710,626.642 486.143,611.686 478.463,593 C 473.809,581.675 469.154,570.351 464.500,559.026 C 462.750,559.022 461,559.017 459.250,559.013 ZM 532.894,601.500 C 532.450,603.150 532.223,607.728 532.389,611.673 C 532.910,624.090 538.651,632.737 549.969,638.154 C 556.882,641.463 568.681,641.317 576,637.832 C 579.025,636.392 582.770,633.992 584.323,632.499 C 585.264,631.594 586.205,630.689 587.146,629.784 C 586.397,628.987 585.647,628.189 584.898,627.392 C 582.277,624.602 580.749,624.392 578.939,626.573 C 578.221,627.438 575.804,629.094 573.567,630.253 C 568.487,632.885 557.987,633.157 553.500,630.773 C 547.901,627.798 542,619.730 542,615.050 C 542,613.042 542.477,613 565.500,613 C 573.333,613 581.167,613 589,613 C 589,611.605 589,610.211 589,608.816 C 589,597.134 582.677,585.946 573.553,581.482 C 568.504,579.012 567.174,578.793 559.643,579.188 C 552.927,579.541 550.435,580.141 546.763,582.293 C 539.679,586.445 535.319,592.482 532.894,601.500 ZM 606.454,580 C 604.969,580 603.485,580 602,580 C 602,589.833 602,599.667 602,609.500 C 602,619.333 602,629.167 602,639 C 603.460,639 604.920,639 606.380,639 C 607.840,639 609.301,639 610.761,639 C 610.904,633.750 611.047,628.500 611.190,623.250 C 611.560,609.667 611.927,606.813 613.858,602.512 C 617.660,594.046 622.363,590.355 630.903,589.133 C 632.435,588.914 633.968,588.694 635.500,588.475 C 635.500,586.979 635.500,585.484 635.500,583.988 C 635.500,579.629 635.404,579.491 632.154,579.180 C 626.875,578.674 618.619,583.248 614.746,588.825 C 613.664,590.383 612.582,591.942 611.500,593.500 C 611.401,591.250 611.303,589 611.204,586.750 C 611.105,584.500 611.008,582.250 610.909,580 C 609.424,580 607.939,580 606.454,580 ZM 645.500,580 C 644,580 642.500,580 641,580 C 641,581.333 641,582.667 641,584 C 641,585.333 641,586.667 641,588 C 642.500,588 644,588 645.500,588 C 647,588 648.500,588 650,588 C 650,594.750 650.002,601.500 650.002,608.250 C 650.003,625.533 650.260,629.010 651.752,631.980 C 655.204,638.852 663.472,641.949 672.940,639.919 C 674.627,639.557 676.313,639.196 678,638.834 C 678,637.370 678,635.906 678,634.442 C 678,630.140 677.947,630.070 675.435,631.025 C 670.791,632.791 665.337,632.193 662.306,629.588 C 661.371,628.784 660.435,627.981 659.500,627.177 C 659.391,620.648 659.283,614.117 659.174,607.588 C 659.065,601.059 658.956,594.529 658.847,588 C 662.039,588 665.232,588 668.424,588 C 671.616,588 674.808,588 678,588 C 678,586.679 678,585.359 678,584.038 C 678,582.717 678,581.396 678,580.075 C 674.917,579.979 671.833,579.884 668.750,579.788 C 665.667,579.692 662.583,579.596 659.500,579.500 C 659.404,576.583 659.307,573.667 659.211,570.750 C 659.115,567.833 659.018,564.917 658.922,562 C 657.435,562 655.948,562 654.461,562 C 652.974,562 651.487,562 650,562 C 650,565 650,568 650,571 C 650,574 650,577 650,580 C 648.500,580 647,580 645.500,580 ZM 691.621,557.713 C 691.229,558.105 691.041,560.468 691.204,562.963 C 691.303,564.475 691.401,565.988 691.500,567.500 C 693.250,567.601 695,567.701 696.750,567.802 C 698.500,567.903 700.250,568.003 702,568.104 C 702,566.253 702,564.403 702,562.552 C 702,560.701 702,558.851 702,557 C 700.389,557 698.778,557 697.167,557 C 694.509,557 692.013,557.321 691.621,557.713 ZM 697,580 C 695.333,580 693.667,580 692,580 C 692,589.833 692,599.667 692,609.500 C 692,619.333 692,629.167 692,639 C 693.667,639 695.333,639 697,639 C 698.667,639 700.333,639 702,639 C 702,629.167 702,619.333 702,609.500 C 702,599.667 702,589.833 702,580 C 700.333,580 698.667,580 697,580 ZM 718.805,623.687 C 717.262,625.165 716,626.702 716,627.102 C 716,628.497 726.097,635.230 730.962,637.078 C 742.662,641.524 757.179,641.500 765.957,637.022 C 779.166,630.283 781.948,612.717 771.376,602.803 C 767.677,599.335 763.743,597.730 751.041,594.510 C 733.649,590.101 728.395,586.165 729.284,578.209 C 729.850,573.140 732.039,570.389 737.500,567.881 C 745.210,564.340 757.773,566.155 765.800,571.970 C 767.176,572.967 768.552,573.964 769.928,574.961 C 770.843,573.761 771.760,572.560 772.675,571.360 C 773.590,570.160 774.506,568.959 775.421,567.759 C 774.601,567.084 773.781,566.409 772.961,565.734 C 762.640,557.239 743.677,555.105 731.384,561.056 C 719.928,566.602 715.720,580.869 722.503,591.167 C 725.640,595.929 734.475,600.227 747,603.085 C 762.330,606.582 768.004,610.582 767.996,617.885 C 767.991,623.192 764.741,627.784 759.285,630.198 C 750.092,634.265 733.883,630.973 725.945,623.428 C 722.735,620.377 722.241,620.395 718.805,623.687 ZM 795.393,580 C 793.929,580 792.464,580 791,580 C 791,586.484 791,592.967 791,599.451 C 791,610.149 791.482,621.146 792.070,623.889 C 794.430,634.894 805.413,642.122 817.387,640.550 C 823.057,639.806 830.392,636.005 832.017,632.969 C 833.709,629.808 835,630.687 835,635 C 835,636.333 835,637.667 835,639 C 836.500,639 838,639 839.500,639 C 841,639 842.500,639 844,639 C 844,629.167 844,619.333 844,609.500 C 844,599.667 844,589.833 844,580 C 842.500,580 841,580 839.500,580 C 838,580 836.500,580 835,580 C 835,585.484 835,590.967 835,596.451 C 835,615.056 833.939,621.731 830.292,626.065 C 826.692,630.344 822.898,632 816.698,632 C 810.217,632 805.385,629.222 802.752,623.980 C 801.274,621.039 801.003,617.609 801.002,601.832 C 801.001,591.564 800.727,582.452 800.393,581.582 C 799.967,580.472 798.476,580 795.393,580 ZM 865.750,580.195 C 864.167,580.093 862.583,579.992 861,579.890 C 861,589.742 861,599.593 861,609.445 C 861,619.297 861,629.148 861,639 C 862.667,639 864.333,639 866,639 C 867.667,639 869.333,639 871,639 C 871,632.552 871,626.105 871,619.657 C 871,601.436 871.133,600.059 873.294,595.907 C 879.041,584.864 894.130,584.249 900.313,594.806 C 901.913,597.539 902.117,600.316 902.043,618.451 C 902.015,625.301 901.987,632.150 901.959,639 C 903.633,639 905.307,639 906.980,639 C 908.653,639 910.327,639 912,639 C 912.005,632.417 912.011,625.833 912.016,619.250 C 912.031,600.660 912.164,599.271 914.266,595.594 C 917.440,590.044 921.005,587.745 927.209,587.247 C 931.556,586.898 933.125,587.243 936,589.181 C 942.413,593.504 942.996,595.968 942.998,618.750 C 942.998,625.500 943,632.250 943,639 C 944.667,639 946.333,639 948,639 C 949.667,639 951.333,639 953,639 C 953,632.394 953,625.788 953,619.182 C 953,597.374 952.006,591.538 947.350,586.004 C 943.246,581.126 938.087,579 930.356,579 C 922.387,579 916.249,581.540 912.319,586.466 C 911.457,587.547 910.594,588.628 909.732,589.709 C 908.527,588.373 907.321,587.038 906.116,585.702 C 901.569,580.663 897.614,578.994 890.282,579.022 C 883.659,579.047 877.736,581.390 874,585.461 C 873.167,586.369 872.333,587.277 871.500,588.185 C 871.333,586.904 871.167,585.623 871,584.342 C 870.506,580.549 870.439,580.496 865.750,580.195 Z" fill="#FFFFFF" stroke="none" />
  <path id="3" d="M 937.142,461.500 C 938.552,465.197 938.954,468.325 938.681,473.500 C 938.041,485.650 931.672,495.068 920.329,500.638 C 918.386,501.592 916.443,502.546 914.500,503.500 C 895.078,503.594 875.657,503.687 856.235,503.781 C 836.813,503.875 817.393,503.968 797.971,504.062 C 797.143,503.234 796.313,502.404 795.485,501.576 C 792.347,498.438 792.323,494.900 795.413,491.306 C 796.217,490.371 797.022,489.435 797.826,488.500 C 816.938,488.333 836.051,488.167 855.163,488 C 896.142,487.643 913.071,487.168 914.500,486.336 C 918.145,484.215 921.800,479.552 922.842,475.693 C 924.256,470.459 923.436,468.163 909.030,437 C 887.129,389.625 867.638,346.938 805.848,211.023 C 789.976,176.111 776.159,146.715 775.142,145.698 C 772.719,143.275 765.873,142.396 761.981,144.008 C 758.208,145.571 756.236,148.923 746.689,170 C 742.579,179.075 734.051,197.750 727.740,211.500 C 721.428,225.250 704.231,262.825 689.523,295 C 674.815,327.175 661.852,354.513 660.716,355.750 C 658.514,358.150 654.190,358.707 651.006,357.003 C 649.982,356.455 646.243,350.717 642.696,344.253 C 634.884,330.015 609.790,283.325 604.512,273.208 C 602.420,269.197 599.588,265.035 598.219,263.958 C 594.748,261.228 588.102,261.345 584.471,264.201 C 581.564,266.487 580.732,268.142 536.521,359.500 C 486.102,463.686 485.535,464.926 485.517,471.073 C 485.497,477.719 488.402,482.733 494.141,485.959 C 497.804,488.018 498.200,488.024 613.658,487.762 C 652.272,487.675 690.886,487.587 729.500,487.500 C 731.668,486.473 733.835,485.445 736.003,484.418 C 748.295,478.593 756.619,467.253 758.954,453.153 C 760.506,443.779 759.962,318.500 758.369,318.500 C 757.747,318.500 752.335,324.800 746.343,332.500 C 726.247,358.325 725.006,359.782 722.572,360.393 C 717.660,361.626 713,358.243 713,353.444 C 713,349.747 712.437,350.535 742.267,312.500 C 762.299,286.958 762.728,286.495 766.589,286.204 C 771.628,285.825 771.045,285.201 799.383,321.354 C 816.036,342.600 822,350.914 822,352.882 C 822,358.432 816.842,362.031 811.694,360.074 C 810.291,359.541 802.529,350.589 793.482,339.072 C 784.810,328.032 777.122,319 776.396,319 C 775.319,319 775.020,331.899 774.769,389.250 C 774.667,412.667 774.564,436.083 774.462,459.500 C 773.691,461.574 772.919,463.649 772.148,465.723 C 769.080,473.977 763.113,483.045 756.711,489.185 C 750.635,495.012 738.385,501.200 729.500,502.930 C 725.081,503.790 693.329,504.020 609,503.799 C 570.833,503.699 532.667,503.600 494.500,503.500 C 492.667,502.595 490.833,501.691 489,500.786 C 480.922,496.799 476.769,492.919 472.987,485.825 C 469.979,480.183 469.611,478.636 469.583,471.500 C 469.553,463.949 469.838,462.883 474.661,452.500 C 480.738,439.417 511.358,375.525 526.420,344.500 C 532.294,332.400 543.940,308.325 552.300,291 C 565.541,263.559 568.157,258.835 572.602,254.333 C 583.062,243.740 598.650,243.287 609.403,253.265 C 613.044,256.643 616.872,262.962 628.324,284.500 C 636.220,299.350 645.285,316.370 648.468,322.323 C 651.651,328.275 654.622,332.775 655.072,332.323 C 655.747,331.644 676.360,286.818 697.987,239 C 700.599,233.225 707.919,217.250 714.255,203.500 C 720.591,189.750 729.685,169.970 734.465,159.545 C 739.245,149.120 744.490,138.906 746.120,136.848 C 747.768,134.767 751.618,131.862 754.792,130.303 C 765.596,124.997 779.266,127.298 787.314,135.778 C 789.741,138.335 810.737,183.085 835.978,239.500 C 842.708,254.543 889.425,357.008 902.999,386.500 C 908.062,397.500 915.484,413.700 919.494,422.500 C 923.504,431.300 928.686,442.550 931.010,447.500 C 933.334,452.450 936.093,458.750 937.142,461.500 Z" fill="#F85705" stroke="none" />
  <path id="12" d="M 865.750,580.195 C 870.439,580.496 870.506,580.549 871,584.342 C 871.167,585.623 871.333,586.904 871.500,588.185 C 872.333,587.277 873.167,586.369 874,585.461 C 877.736,581.390 883.659,579.047 890.282,579.022 C 897.614,578.994 901.569,580.663 906.116,585.702 C 907.321,587.038 908.527,588.373 909.732,589.709 C 910.594,588.628 911.457,587.547 912.319,586.466 C 916.249,581.540 922.387,579 930.356,579 C 938.087,579 943.246,581.126 947.350,586.004 C 952.006,591.538 953,597.374 953,619.182 C 953,625.788 953,632.394 953,639 C 951.333,639 949.667,639 948,639 C 946.333,639 944.667,639 943,639 C 943,632.250 942.998,625.500 942.998,618.750 C 942.996,595.968 942.413,593.504 936,589.181 C 933.125,587.243 931.556,586.898 927.209,587.247 C 921.005,587.745 917.440,590.044 914.266,595.594 C 912.164,599.271 912.031,600.660 912.016,619.250 C 912.011,625.833 912.005,632.417 912,639 C 910.327,639 908.653,639 906.980,639 C 905.307,639 903.633,639 901.959,639 C 901.987,632.150 902.015,625.301 902.043,618.451 C 902.117,600.316 901.913,597.539 900.313,594.806 C 894.130,584.249 879.041,584.864 873.294,595.907 C 871.133,600.059 871,601.436 871,619.657 C 871,626.105 871,632.552 871,639 C 869.333,639 867.667,639 866,639 C 864.333,639 862.667,639 861,639 C 861,629.148 861,619.297 861,609.445 C 861,599.593 861,589.742 861,579.890 C 862.583,579.992 864.167,580.093 865.750,580.195 Z" fill="#000000" stroke="none" />
  <path id="12" d="M 532.894,601.500 C 535.319,592.482 539.679,586.445 546.763,582.293 C 550.435,580.141 552.927,579.541 559.643,579.188 C 567.174,578.793 568.504,579.012 573.553,581.482 C 582.677,585.946 589,597.134 589,608.816 C 589,610.211 589,611.605 589,613 C 581.167,613 573.333,613 565.500,613 C 542.477,613 542,613.042 542,615.050 C 542,619.730 547.901,627.798 553.500,630.773 C 557.987,633.157 568.487,632.885 573.567,630.253 C 575.804,629.094 578.221,627.438 578.939,626.573 C 580.749,624.392 582.277,624.602 584.898,627.392 C 585.647,628.189 586.397,628.987 587.146,629.784 C 586.205,630.689 585.264,631.594 584.323,632.499 C 582.770,633.992 579.025,636.392 576,637.832 C 568.681,641.317 556.882,641.463 549.969,638.154 C 538.651,632.737 532.910,624.090 532.389,611.673 C 532.223,607.728 532.450,603.150 532.894,601.500 ZM 577.607,597.500 C 572.824,586.583 559.078,583.209 549.352,590.565 C 545.962,593.129 542,600.270 542,603.816 C 542,605.983 542.146,606 560.500,606 C 566.667,606 572.833,606 579,606 C 578.987,605.083 578.974,604.167 578.961,603.250 C 578.939,601.737 578.330,599.150 577.607,597.500 Z" fill="#000000" stroke="none" />
  <path id="12" d="M 459.250,559.013 C 461,559.017 462.750,559.022 464.500,559.026 C 469.154,570.351 473.809,581.675 478.463,593 C 486.143,611.686 492.710,626.642 493.057,626.237 C 493.670,625.520 513.125,579.314 518.544,565.704 C 519.446,563.439 520.348,561.173 521.250,558.908 C 522.995,559.007 524.740,559.105 526.485,559.204 C 528.230,559.303 529.974,559.401 531.719,559.500 C 525.993,572.833 520.268,586.167 514.542,599.500 C 508.816,612.833 503.090,626.167 497.364,639.500 C 495.858,639.599 494.352,639.699 492.846,639.798 C 491.340,639.897 489.835,639.997 488.329,640.096 C 485.617,633.830 482.903,627.564 480.191,621.298 C 470.123,598.039 454,559.934 454,559.398 C 454,559.179 456.362,559.006 459.250,559.013 Z" fill="#000000" stroke="none" />
  <path id="12" d="M 718.805,623.687 C 722.241,620.395 722.735,620.377 725.945,623.428 C 733.883,630.973 750.092,634.265 759.285,630.198 C 764.741,627.784 767.991,623.192 767.996,617.885 C 768.004,610.582 762.330,606.582 747,603.085 C 734.475,600.227 725.640,595.929 722.503,591.167 C 715.720,580.869 719.928,566.602 731.384,561.056 C 743.677,555.105 762.640,557.239 772.961,565.734 C 773.781,566.409 774.601,567.084 775.421,567.759 C 774.506,568.959 773.590,570.160 772.675,571.360 C 771.760,572.560 770.843,573.761 769.928,574.961 C 768.552,573.964 767.176,572.967 765.800,571.970 C 757.773,566.155 745.210,564.340 737.500,567.881 C 732.039,570.389 729.850,573.140 729.284,578.209 C 728.395,586.165 733.649,590.101 751.041,594.510 C 763.743,597.730 767.677,599.335 771.376,602.803 C 781.948,612.717 779.166,630.283 765.957,637.022 C 757.179,641.500 742.662,641.524 730.962,637.078 C 726.097,635.230 716,628.497 716,627.102 C 716,626.702 717.262,625.165 718.805,623.687 Z" fill="#000000" stroke="none" />
  <path id="12" d="M 795.393,580 C 798.476,580 799.967,580.472 800.393,581.582 C 800.727,582.452 801.001,591.564 801.002,601.832 C 801.003,617.609 801.274,621.039 802.752,623.980 C 805.385,629.222 810.217,632 816.698,632 C 822.898,632 826.692,630.344 830.292,626.065 C 833.939,621.731 835,615.056 835,596.451 C 835,590.967 835,585.484 835,580 C 836.500,580 838,580 839.500,580 C 841,580 842.500,580 844,580 C 844,589.833 844,599.667 844,609.500 C 844,619.333 844,629.167 844,639 C 842.500,639 841,639 839.500,639 C 838,639 836.500,639 835,639 C 835,637.667 835,636.333 835,635 C 835,630.687 833.709,629.808 832.017,632.969 C 830.392,636.005 823.057,639.806 817.387,640.550 C 805.413,642.122 794.430,634.894 792.070,623.889 C 791.482,621.146 791,610.149 791,599.451 C 791,592.967 791,586.484 791,580 C 792.464,580 793.929,580 795.393,580 Z" fill="#000000" stroke="none" />
  <path id="12" d="M 645.500,580 C 647,580 648.500,580 650,580 C 650,577 650,574 650,571 C 650,568 650,565 650,562 C 651.487,562 652.974,562 654.461,562 C 655.948,562 657.435,562 658.922,562 C 659.018,564.917 659.115,567.833 659.211,570.750 C 659.307,573.667 659.404,576.583 659.500,579.500 C 662.583,579.596 665.667,579.692 668.750,579.788 C 671.833,579.884 674.917,579.979 678,580.075 C 678,581.396 678,582.717 678,584.038 C 678,585.359 678,586.679 678,588 C 674.808,588 671.616,588 668.424,588 C 665.232,588 662.039,588 658.847,588 C 658.956,594.529 659.065,601.059 659.174,607.588 C 659.283,614.117 659.391,620.648 659.500,627.177 C 660.435,627.981 661.371,628.784 662.306,629.588 C 665.337,632.193 670.791,632.791 675.435,631.025 C 677.947,630.070 678,630.140 678,634.442 C 678,635.906 678,637.370 678,638.834 C 676.313,639.196 674.627,639.557 672.940,639.919 C 663.472,641.949 655.204,638.852 651.752,631.980 C 650.260,629.010 650.003,625.533 650.002,608.250 C 650.002,601.500 650,594.750 650,588 C 648.500,588 647,588 645.500,588 C 644,588 642.500,588 641,588 C 641,586.667 641,585.333 641,584 C 641,582.667 641,581.333 641,580 C 642.500,580 644,580 645.500,580 Z" fill="#000000" stroke="none" />
  <path id="12" d="M 606.454,580 C 607.939,580 609.424,580 610.909,580 C 611.008,582.250 611.105,584.500 611.204,586.750 C 611.303,589 611.401,591.250 611.500,593.500 C 612.582,591.942 613.664,590.383 614.746,588.825 C 618.619,583.248 626.875,578.674 632.154,579.180 C 635.404,579.491 635.500,579.629 635.500,583.988 C 635.500,585.484 635.500,586.979 635.500,588.475 C 633.968,588.694 632.435,588.914 630.903,589.133 C 622.363,590.355 617.660,594.046 613.858,602.512 C 611.927,606.813 611.560,609.667 611.190,623.250 C 611.047,628.500 610.904,633.750 610.761,639 C 609.301,639 607.840,639 606.380,639 C 604.920,639 603.460,639 602,639 C 602,629.167 602,619.333 602,609.500 C 602,599.667 602,589.833 602,580 C 603.485,580 604.969,580 606.454,580 Z" fill="#000000" stroke="none" />
  <path id="12" d="M 697,580 C 698.667,580 700.333,580 702,580 C 702,589.833 702,599.667 702,609.500 C 702,619.333 702,629.167 702,639 C 700.333,639 698.667,639 697,639 C 695.333,639 693.667,639 692,639 C 692,629.167 692,619.333 692,609.500 C 692,599.667 692,589.833 692,580 C 693.667,580 695.333,580 697,580 Z" fill="#000000" stroke="none" />
  <path id="5" d="M 577.607,597.500 C 578.330,599.150 578.939,601.737 578.961,603.250 C 578.974,604.167 578.987,605.083 579,606 C 572.833,606 566.667,606 560.500,606 C 542.146,606 542,605.983 542,603.816 C 542,600.270 545.962,593.129 549.352,590.565 C 559.078,583.209 572.824,586.583 577.607,597.500 Z" fill="#FFFFFF" stroke="none" />
  <path id="12" d="M 691.621,557.713 C 692.013,557.321 694.509,557 697.167,557 C 698.778,557 700.389,557 702,557 C 702,558.851 702,560.701 702,562.552 C 702,564.403 702,566.253 702,568.104 C 700.250,568.003 698.500,567.903 696.750,567.802 C 695,567.701 693.250,567.601 691.500,567.500 C 691.401,565.988 691.303,564.475 691.204,562.963 C 691.041,560.468 691.229,558.105 691.621,557.713 Z" fill="#000000" stroke="none" />
</svg>
